<svg viewBox="0 0 512 512" xml:space="preserve" xmlns="http://www.w3.org/2000/svg" enable-background="new 0 0 512 512"><path d="M395.8 154.8c2.3 4.7 8.1 6.7 12.8 4.3 4.7-2.3 6.7-8.1 4.3-12.8-28.6-57.9-90.1-95.4-156.8-95.4-92.4 0-168.2 69.9-173.2 157.7-10.3.9-20.2 3.4-29.2 7.5 1.4-24.7 7.3-48.5 17.5-71 2.2-4.8 0-10.5-4.8-12.7-4.8-2.2-10.5 0-12.7 4.8-12.9 28.6-19.5 59.2-19.5 90.8C13.6 244.5.3 269.9.3 298.3c0 49.7 40.4 90.1 90.1 90.1h17.5c5.3 0 9.6-4.3 9.6-9.6v-32c0-5.3-4.3-9.6-9.6-9.6s-9.6 4.3-9.6 9.6v22.4h-8c-39.1 0-70.9-31.8-70.9-70.9s31.8-70.9 70.9-70.9h8v81.2c0 5.3 4.3 9.6 9.6 9.6s9.6-4.3 9.6-9.6v-90.8c0-5.3-4.3-9.6-9.6-9.6h-5.8c5.2-77.1 72.2-138.2 154-138.2 59.5.1 114.3 33.3 139.7 84.8z" fill="#ffffff" class="fill-232323"></path><path d="M475.8 226.4c-1-120.9-99.6-218.9-220.7-218.9C192.9 7.4 133.2 33.9 91.4 80c-3.5 3.9-3.2 10 .7 13.5 3.9 3.6 10 3.3 13.5-.7 38.2-42.2 92.7-66.3 149.5-66.3 106.8 0 194.4 83.5 201.2 188.6-8.4-3.5-17.4-5.7-26.9-6.5-.5-8.3-1.6-16.6-3.3-24.7-1.1-5.2-6.2-8.4-11.4-7.3-5.2 1.1-8.5 6.2-7.3 11.4 1.4 6.7 2.3 13.5 2.8 20.4h-5.8c-5.3 0-9.6 4.3-9.6 9.6v161c0 5.3 4.3 9.6 9.6 9.6h17.5c11.1 0 21.9-2.1 32-5.9v23.7c0 15.4-6 29.8-16.9 40.7-10.9 10.9-25.3 16.9-40.7 16.9h-33.7c-.4 0-.7.1-1.1.1v-15.6c0-5.3-4.3-9.6-9.6-9.6h-47.5c-14.1 0-25.5 11.4-25.5 25.5v14.9c0 14.1 11.4 25.5 25.5 25.5h47.5c5.3 0 9.6-4.3 9.6-9.6V483c.4 0 .7.1 1.1.1h33.7c20.5 0 39.7-8 54.2-22.5s22.5-33.7 22.5-54.2v-33.8c4-2.7 7.8-5.7 11.3-9.1 3.8-3.7 3.9-9.7.3-13.5-3.7-3.8-9.7-3.9-13.5-.3-3.9 3.8-8.3 7-12.8 9.7 0 0-.1 0-.1.1-10.9 6.5-23.3 10-36.2 10h-8V227.4h8c39.1 0 70.9 31.8 70.9 70.9 0 9.1-1.7 17.9-5 26.2-2 4.9.4 10.5 5.3 12.4 4.9 1.9 10.5-.4 12.4-5.3 4.2-10.6 6.4-21.8 6.4-33.3 0-29.4-14.3-55.5-36.2-71.9zm-133.3 259h-38c-3.5 0-6.4-2.9-6.4-6.4v-14.9c0-3.5 2.9-6.4 6.4-6.4h38v27.7z" fill="#ffffff" class="fill-232323"></path></svg>